<?xml version="1.0" encoding="UTF-8"?>
<svg id="Layer_2" data-name="Layer 2" xmlns="http://www.w3.org/2000/svg" viewBox="0 0 244.64 45.47">
  <defs>
    <style>
      .cls-1 {
        fill: #ff284d;
      }
    </style>
  </defs>
  <g id="Layer_1-2" data-name="Layer 1">
    <g>
      <path class="cls-1" d="M10.03,44.9L0,14.91h8.39l6.12,20.41-1.25-.17,6.75-15.93h4.76l7.03,15.99-1.36.11,6.12-20.41h8.39l-10.21,29.99h-5.84l-7.09-17.06.91.11-6.92,16.95h-5.78Z"/>
      <path class="cls-1" d="M60.21,45.47c-2.49,0-4.74-.68-6.75-2.04-2-1.36-3.59-3.21-4.76-5.56-1.17-2.34-1.76-5.03-1.76-8.05s.6-5.7,1.79-8.02,2.81-4.16,4.85-5.5c2.04-1.34,4.37-2.01,6.97-2.01,1.47,0,2.83.22,4.05.65,1.23.43,2.31,1.03,3.23,1.79.93.76,1.71,1.63,2.35,2.61.64.98,1.1,2.04,1.36,3.17l-1.7-.28v-7.31h7.99v29.99h-8.11v-7.2l1.81-.17c-.3,1.06-.79,2.06-1.47,3-.68.95-1.52,1.79-2.52,2.52-1,.74-2.13,1.32-3.37,1.76-1.25.43-2.57.65-3.97.65ZM62.42,38.49c1.51,0,2.83-.36,3.97-1.08,1.13-.72,2.01-1.73,2.64-3.03.62-1.3.94-2.83.94-4.56s-.31-3.19-.94-4.48c-.62-1.29-1.5-2.3-2.64-3.03-1.13-.74-2.46-1.11-3.97-1.11s-2.77.37-3.88,1.11c-1.12.74-1.99,1.75-2.64,3.03-.64,1.29-.96,2.78-.96,4.48s.32,3.26.96,4.56c.64,1.3,1.52,2.32,2.64,3.03,1.11.72,2.41,1.08,3.88,1.08Z"/>
      <path class="cls-1" d="M90.54,8.73c-1.55,0-2.76-.38-3.63-1.13-.87-.76-1.3-1.83-1.3-3.23,0-1.29.44-2.33,1.33-3.15.89-.81,2.09-1.22,3.6-1.22s2.76.39,3.63,1.16c.87.77,1.3,1.84,1.3,3.2s-.44,2.38-1.33,3.17c-.89.79-2.09,1.19-3.6,1.19ZM86.57,44.9V14.91h8.05v29.99h-8.05Z"/>
      <path class="cls-1" d="M100.52,22.11v-7.2h19.79v7.2h-19.79ZM106.13,44.9V7.31h8.05v37.59h-8.05Z"/>
      <path class="cls-1" d="M132.43,44.9l-10.03-29.99h8.39l6.12,20.41-1.25-.17,6.75-15.93h4.76l7.03,15.99-1.36.11,6.12-20.41h8.39l-10.2,29.99h-5.84l-7.09-17.06.91.11-6.92,16.95h-5.78Z"/>
      <path class="cls-1" d="M176.88,8.73c-1.55,0-2.76-.38-3.63-1.13-.87-.76-1.3-1.83-1.3-3.23,0-1.29.44-2.33,1.33-3.15.89-.81,2.09-1.22,3.6-1.22s2.76.39,3.63,1.16c.87.77,1.3,1.84,1.3,3.2s-.45,2.38-1.33,3.17c-.89.79-2.09,1.19-3.6,1.19ZM172.91,44.9V14.91h8.05v29.99h-8.05Z"/>
      <path class="cls-1" d="M199.67,45.47c-2.8,0-5.28-.46-7.46-1.39-2.17-.93-3.92-2.2-5.24-3.83l4.99-4.31c1.17,1.25,2.47,2.15,3.91,2.69,1.44.55,2.87.82,4.31.82.57,0,1.09-.07,1.56-.2.47-.13.88-.32,1.22-.57.34-.25.6-.55.77-.91.17-.36.25-.75.25-1.16,0-.83-.34-1.49-1.02-1.98-.38-.19-.96-.42-1.76-.71-.79-.28-1.81-.6-3.06-.94-1.93-.49-3.56-1.07-4.9-1.73-1.34-.66-2.41-1.41-3.2-2.24-.68-.79-1.2-1.65-1.56-2.58-.36-.93-.54-1.96-.54-3.09,0-1.36.3-2.6.91-3.71.6-1.11,1.45-2.07,2.52-2.86,1.08-.79,2.32-1.41,3.71-1.84,1.4-.43,2.87-.65,4.42-.65s3.06.19,4.54.57c1.47.38,2.84.92,4.11,1.62,1.27.7,2.37,1.52,3.32,2.47l-4.31,4.76c-.68-.64-1.45-1.23-2.3-1.76-.85-.53-1.73-.94-2.64-1.25-.91-.3-1.72-.45-2.44-.45-.64,0-1.22.06-1.73.17-.51.11-.94.28-1.28.51-.34.23-.6.52-.77.88-.17.36-.25.75-.25,1.16s.1.81.31,1.19c.21.38.5.7.88.96.42.23,1.03.49,1.84.79.81.3,1.92.64,3.32,1.02,1.81.49,3.35,1.04,4.62,1.64,1.27.6,2.28,1.3,3.03,2.1.64.68,1.11,1.46,1.42,2.32.3.87.45,1.83.45,2.89,0,1.85-.52,3.51-1.56,4.96-1.04,1.46-2.47,2.59-4.28,3.4-1.81.81-3.86,1.22-6.12,1.22Z"/>
      <path class="cls-1" d="M231.59,45.47c-3.25,0-6.08-.66-8.5-1.98s-4.31-3.14-5.67-5.44-2.04-4.95-2.04-7.94c0-2.3.38-4.42,1.13-6.35.76-1.93,1.81-3.6,3.17-5.02,1.36-1.42,2.98-2.51,4.85-3.29,1.87-.77,3.9-1.16,6.09-1.16,2.04,0,3.93.37,5.67,1.11,1.74.74,3.24,1.78,4.51,3.12,1.27,1.34,2.24,2.92,2.92,4.73.68,1.81.98,3.8.91,5.95l-.06,2.5h-24.09l-1.3-4.93h18.76l-.91,1.02v-1.25c-.08-1.02-.41-1.95-.99-2.78-.59-.83-1.33-1.47-2.24-1.93-.91-.45-1.93-.68-3.06-.68-1.66,0-3.07.32-4.22.96-1.15.64-2.03,1.59-2.64,2.83-.61,1.25-.91,2.76-.91,4.54s.39,3.38,1.16,4.71c.77,1.32,1.87,2.35,3.29,3.09,1.42.74,3.09,1.11,5.02,1.11,1.32,0,2.53-.21,3.63-.62,1.1-.42,2.27-1.13,3.52-2.15l3.85,5.39c-1.1.98-2.31,1.81-3.63,2.47-1.32.66-2.68,1.16-4.08,1.5s-2.78.51-4.14.51Z"/>
    </g>
  </g>
</svg>